<svg width="40" height="40" viewBox="0 0 40 40" fill="none" xmlns="http://www.w3.org/2000/svg">
<path fill-rule="evenodd" clip-rule="evenodd" d="M25.5453 8.04046C25.6249 7.8023 25.6558 7.55059 25.6362 7.30025C25.6167 7.04992 25.547 6.80606 25.4315 6.58315C25.3159 6.36024 25.1567 6.16281 24.9633 6.00259C24.77 5.84237 24.5464 5.72262 24.3059 5.65043C24.0654 5.57825 23.8129 5.55511 23.5633 5.58238C23.3137 5.60966 23.0721 5.68679 22.8528 5.8092C22.6336 5.93162 22.4412 6.09682 22.287 6.29502C22.1328 6.49321 22.02 6.72035 21.9553 6.96296L14.4553 31.963C14.3331 32.4328 14.3979 32.9316 14.6361 33.3546C14.8742 33.7776 15.2671 34.0918 15.7321 34.231C16.1971 34.3703 16.698 34.3237 17.1294 34.1012C17.5608 33.8787 17.8892 33.4976 18.0453 33.038L25.5453 8.03796V8.04046ZM11.3253 12.4255C11.6764 12.777 11.8737 13.2536 11.8737 13.7505C11.8737 14.2473 11.6764 14.7239 11.3253 15.0755L6.4003 20.0005L11.3253 24.9255C11.6565 25.2809 11.8368 25.751 11.8282 26.2368C11.8197 26.7225 11.6229 27.186 11.2794 27.5295C10.9358 27.873 10.4724 28.0698 9.98661 28.0784C9.50086 28.087 9.03074 27.9067 8.6753 27.5755L2.4253 21.3255C2.07418 20.9739 1.87695 20.4973 1.87695 20.0005C1.87695 19.5036 2.07418 19.027 2.4253 18.6755L8.6753 12.4255C9.02687 12.0743 9.50343 11.8771 10.0003 11.8771C10.4972 11.8771 10.9737 12.0743 11.3253 12.4255ZM28.6753 27.5755C28.3242 27.2239 28.127 26.7473 28.127 26.2505C28.127 25.7536 28.3242 25.277 28.6753 24.9255L33.6003 20.0005L28.6753 15.0755C28.3441 14.72 28.1638 14.2499 28.1724 13.7642C28.1809 13.2784 28.3777 12.8149 28.7212 12.4714C29.0648 12.1279 29.5282 11.9311 30.014 11.9225C30.4998 11.914 30.9699 12.0943 31.3253 12.4255L37.5753 18.6755C37.9264 19.027 38.1237 19.5036 38.1237 20.0005C38.1237 20.4973 37.9264 20.9739 37.5753 21.3255L31.3253 27.5755C30.9737 27.9266 30.4972 28.1238 30.0003 28.1238C29.5034 28.1238 29.0269 27.9266 28.6753 27.5755Z" fill="#054CC0"/>
</svg>
