<svg width="48" height="48" viewBox="0 0 48 48" fill="none" xmlns="http://www.w3.org/2000/svg">
<path fill-rule="evenodd" clip-rule="evenodd" d="M21.597 6C21.4387 6 21.2868 6.0629 21.1749 6.17486C21.0629 6.28682 21 6.43867 21 6.597C21 12.021 15.126 15.414 10.428 12.699C10.3601 12.6597 10.285 12.6343 10.2072 12.624C10.1294 12.6138 10.0504 12.619 9.9746 12.6393C9.89881 12.6597 9.82777 12.6948 9.76556 12.7426C9.70334 12.7904 9.65116 12.85 9.612 12.918L7.212 17.082C7.13341 17.2186 7.11202 17.3807 7.15249 17.533C7.19295 17.6853 7.29198 17.8154 7.428 17.895C12.126 20.61 12.126 27.39 7.428 30.105C7.29147 30.1841 7.1918 30.314 7.15077 30.4663C7.10973 30.6187 7.13067 30.781 7.209 30.918L9.612 35.082C9.65116 35.15 9.70334 35.2096 9.76556 35.2574C9.82777 35.3052 9.89881 35.3403 9.9746 35.3607C10.0504 35.381 10.1294 35.3862 10.2072 35.376C10.285 35.3657 10.3601 35.3403 10.428 35.301C15.126 32.586 21 35.979 21 41.4C21 41.73 21.267 41.997 21.597 41.997H26.4C26.73 41.997 26.997 41.73 26.997 41.4C26.997 35.976 32.871 32.583 37.569 35.298C37.7059 35.3763 37.8683 35.3973 38.0207 35.3562C38.173 35.3152 38.3029 35.2155 38.382 35.079L40.788 30.915C40.8663 30.778 40.8873 30.6157 40.8462 30.4633C40.8052 30.311 40.7055 30.1811 40.569 30.102C36.66 27.843 36.021 22.8 38.574 19.602C38.949 19.1438 39.4895 18.8518 40.0783 18.7895C40.6671 18.7271 41.2567 18.8994 41.7194 19.2688C42.182 19.6383 42.4804 20.1753 42.5498 20.7633C42.6191 21.3513 42.4539 21.943 42.09 22.41C41.8632 22.6979 41.7009 23.0312 41.6142 23.3873C41.5275 23.7435 41.5185 24.1141 41.5876 24.474C41.6567 24.834 41.8025 25.1748 42.015 25.4735C42.2274 25.7722 42.5016 26.0216 42.819 26.205C43.9884 26.8814 44.8417 27.9942 45.1916 29.299C45.5414 30.6039 45.3592 31.9943 44.685 33.165L42.279 37.329C41.6032 38.4991 40.4904 39.3529 39.1853 39.7028C37.8802 40.0527 36.4895 39.87 35.319 39.195C34.9317 38.9721 34.4926 38.8549 34.0457 38.8551C33.5988 38.8553 33.1598 38.973 32.7727 39.1963C32.3856 39.4196 32.064 39.7408 31.8401 40.1275C31.6162 40.5143 31.4979 40.9531 31.497 41.4C31.497 44.214 29.217 46.497 26.4 46.497H21.6C18.786 46.497 16.503 44.217 16.503 41.4C16.5021 40.9531 16.3838 40.5143 16.1599 40.1275C15.936 39.7408 15.6144 39.4196 15.2273 39.1963C14.8402 38.973 14.4012 38.8553 13.9543 38.8551C13.5074 38.8549 13.0683 38.9721 12.681 39.195C12.1015 39.5296 11.4618 39.7468 10.7983 39.8342C10.1349 39.9215 9.46074 39.8773 8.8144 39.704C8.16806 39.5307 7.56219 39.2318 7.03142 38.8242C6.50064 38.4167 6.05535 37.9086 5.721 37.329L3.315 33.165C2.63996 31.9945 2.45732 30.6038 2.80723 29.2987C3.15713 27.9936 4.01095 26.8808 5.181 26.205C5.56847 25.9811 5.89022 25.6593 6.11391 25.2717C6.3376 24.8841 6.45536 24.4445 6.45536 23.997C6.45536 23.5495 6.3376 23.1099 6.11391 22.7223C5.89022 22.3347 5.56847 22.0129 5.181 21.789C4.01095 21.1132 3.15713 20.0004 2.80723 18.6953C2.45732 17.3902 2.63996 15.9995 3.315 14.829L5.718 10.665C6.39383 9.49495 7.5066 8.64114 8.81172 8.29123C10.1168 7.94132 11.5075 8.12396 12.678 8.799C13.0649 9.02167 13.5034 9.13889 13.9498 9.13892C14.3962 9.13895 14.8348 9.02181 15.2217 8.79919C15.6086 8.57658 15.9303 8.2563 16.1546 7.87037C16.379 7.48444 16.4981 7.04638 16.5 6.6C16.5 3.78 18.78 1.5 21.597 1.5H27.9C28.1955 1.5 28.4881 1.5582 28.761 1.67127C29.034 1.78434 29.2821 1.95008 29.491 2.15901C29.6999 2.36794 29.8657 2.61598 29.9787 2.88896C30.0918 3.16194 30.15 3.45453 30.15 3.75C30.15 4.04547 30.0918 4.33806 29.9787 4.61104C29.8657 4.88402 29.6999 5.13206 29.491 5.34099C29.2821 5.54992 29.034 5.71566 28.761 5.82873C28.4881 5.9418 28.1955 6 27.9 6H21.597ZM23.997 28.5C25.1905 28.5 26.3351 28.0259 27.179 27.182C28.0229 26.3381 28.497 25.1935 28.497 24C28.497 22.8065 28.0229 21.6619 27.179 20.818C26.3351 19.9741 25.1905 19.5 23.997 19.5C22.8035 19.5 21.6589 19.9741 20.815 20.818C19.9711 21.6619 19.497 22.8065 19.497 24C19.497 25.1935 19.9711 26.3381 20.815 27.182C21.6589 28.0259 22.8035 28.5 23.997 28.5ZM24 33C26.3869 33 28.6761 32.0518 30.364 30.364C32.0518 28.6761 33 26.3869 33 24C33 21.6131 32.0518 19.3239 30.364 17.636C28.6761 15.9482 26.3869 15 24 15C21.613 15 19.3239 15.9482 17.636 17.636C15.9482 19.3239 15 21.6131 15 24C15 26.3869 15.9482 28.6761 17.636 30.364C19.3239 32.0518 21.613 33 24 33Z" fill="#26C465"/>
<path fill-rule="evenodd" clip-rule="evenodd" d="M37.5 16.5C39.0913 16.5 40.6174 15.8679 41.7426 14.7426C42.8679 13.6174 43.5 12.0913 43.5 10.5C43.5 8.9087 42.8679 7.38258 41.7426 6.25736C40.6174 5.13214 39.0913 4.5 37.5 4.5C35.9087 4.5 34.3826 5.13214 33.2574 6.25736C32.1321 7.38258 31.5 8.9087 31.5 10.5C31.5 12.0913 32.1321 13.6174 33.2574 14.7426C34.3826 15.8679 35.9087 16.5 37.5 16.5Z" fill="#26C465"/>
</svg>
