<svg width="48" height="48" viewBox="0 0 48 48" fill="none" xmlns="http://www.w3.org/2000/svg">
<path d="M2.88197 8.26411C2.88197 6.86798 3.43665 5.52903 4.42399 4.54182C5.41132 3.55461 6.75043 3 8.14673 3H15.1664C16.5627 3 17.9018 3.55461 18.8891 4.54182C19.8765 5.52903 20.4312 6.86798 20.4312 8.26411V15.2829C20.4312 16.679 19.8765 18.018 18.8891 19.0052C17.9018 19.9924 16.5627 20.547 15.1664 20.547H13.4115V27.1552C13.6787 27.3091 13.9243 27.4979 14.1415 27.7167L20.2872 33.8617C20.5084 34.0828 20.6944 34.325 20.8453 34.5847H27.4508V32.83C27.4508 31.4338 28.0055 30.0949 28.9928 29.1077C29.9802 28.1205 31.3193 27.5658 32.7156 27.5658H39.7352C41.1315 27.5658 42.4707 28.1205 43.458 29.1077C44.4453 30.0949 45 31.4338 45 32.83V39.8488C45 41.2449 44.4453 42.5838 43.458 43.571C42.4707 44.5583 41.1315 45.1129 39.7352 45.1129H32.7156C31.3193 45.1129 29.9802 44.5583 28.9928 43.571C28.0055 42.5838 27.4508 41.2449 27.4508 39.8488V38.0941H20.8523C20.698 38.361 20.5092 38.6064 20.2908 38.824L14.138 44.9725C13.4798 45.6304 12.5872 46 11.6566 46C10.7259 46 9.8333 45.6304 9.17511 44.9725L3.02939 38.831C2.70306 38.5051 2.44417 38.1181 2.26754 37.692C2.09091 37.266 2 36.8093 2 36.3481C2 35.8869 2.09091 35.4303 2.26754 35.0042C2.44417 34.5782 2.70306 34.1912 3.02939 33.8652L9.17511 27.7203C9.39623 27.4992 9.63841 27.3132 9.89814 27.1623V20.547H8.14322C6.74753 20.5461 5.40932 19.9911 4.42274 19.004C3.43617 18.0169 2.88197 16.6784 2.88197 15.2829V8.26411ZM8.14673 6.50941C7.68129 6.50941 7.23492 6.69428 6.90581 7.02335C6.5767 7.35242 6.39181 7.79873 6.39181 8.26411V15.2829C6.39181 15.7483 6.5767 16.1946 6.90581 16.5237C7.23492 16.8528 7.68129 17.0376 8.14673 17.0376H15.1664C15.6318 17.0376 16.0782 16.8528 16.4073 16.5237C16.7364 16.1946 16.9213 15.7483 16.9213 15.2829V8.26411C16.9213 7.79873 16.7364 7.35242 16.4073 7.02335C16.0782 6.69428 15.6318 6.50941 15.1664 6.50941H8.14673ZM32.7156 31.0752C32.2501 31.0752 31.8038 31.2601 31.4747 31.5892C31.1455 31.9183 30.9607 32.3646 30.9607 32.83V39.8488C30.9607 40.3141 31.1455 40.7605 31.4747 41.0895C31.8038 41.4186 32.2501 41.6035 32.7156 41.6035H39.7352C40.2007 41.6035 40.6471 41.4186 40.9762 41.0895C41.3053 40.7605 41.4902 40.3141 41.4902 39.8488V32.83C41.4902 32.3646 41.3053 31.9183 40.9762 31.5892C40.6471 31.2601 40.2007 31.0752 39.7352 31.0752H32.7156ZM5.51435 36.3429L11.6601 42.4878L17.8058 36.3464L11.6636 30.1979L5.51435 36.3429Z" fill="#CC9C00"/>
</svg>
