<svg width="48" height="48" viewBox="0 0 48 48" fill="none" xmlns="http://www.w3.org/2000/svg">
<path d="M34.5035 24.9797C33.9355 29.7097 30.8375 31.5997 29.4995 32.9717C28.1595 34.3477 28.3995 34.6217 28.4895 36.6397C28.5045 36.8894 28.4683 37.1395 28.383 37.3746C28.2976 37.6098 28.1651 37.8249 27.9934 38.0069C27.8218 38.1888 27.6147 38.3337 27.385 38.4325C27.1552 38.5314 26.9077 38.5822 26.6575 38.5817H21.3415C21.0914 38.5819 20.8439 38.5309 20.6142 38.432C20.3844 38.333 20.1774 38.1882 20.0056 38.0063C19.8339 37.8245 19.7011 37.6095 19.6155 37.3745C19.5298 37.1395 19.4931 36.8894 19.5075 36.6397C19.5075 34.6597 19.6915 34.1997 18.4995 32.9717C16.9795 31.4517 13.4035 29.3057 13.4035 23.4037C13.3944 21.9377 13.6891 20.4857 14.269 19.1393C14.8488 17.7928 15.7014 16.5811 16.7728 15.5804C17.8443 14.5798 19.1114 13.812 20.4943 13.3254C21.8772 12.8388 23.3459 12.6439 24.8079 12.7531C26.2699 12.8623 27.6933 13.2732 28.9886 13.9598C30.2839 14.6465 31.4229 15.594 32.3338 16.7427C33.2447 17.8914 33.9078 19.2163 34.2812 20.634C34.6546 22.0517 34.7303 23.5314 34.5035 24.9797Z" stroke="#054CC0" stroke-width="3.3" stroke-linecap="round" stroke-linejoin="round"/>
<path d="M20.9199 38.4719V41.4959C20.9199 42.3219 21.3799 42.9999 21.9459 42.9999H26.0519C26.6219 42.9999 27.0799 42.3199 27.0799 41.4959V38.4719M22.4399 17.3919C21.259 17.3924 20.1266 17.8619 19.2918 18.6972C18.4569 19.5324 17.9879 20.665 17.9879 21.8459M38.6639 23.8079H42.3319M34.9719 11.7839L37.5739 9.18191M36.9719 33.9999L39.5739 36.5999M23.9999 4.75391V7.71991M10.4799 9.17991L13.0639 11.7839M8.47992 36.5999L11.0639 33.9999M9.33592 23.8079H5.66992" stroke="#054CC0" stroke-width="3.3" stroke-linecap="round" stroke-linejoin="round"/>
</svg>
