<svg width="48" height="48" viewBox="0 0 48 48" fill="none" xmlns="http://www.w3.org/2000/svg">
<path d="M22.0797 2C26.2265 2.00028 30.2317 3.55514 33.3481 6.37456C36.4645 9.19397 38.4793 13.0854 39.0167 17.323L43.8199 25.1088C44.1359 25.6214 44.0718 26.3848 43.3396 26.7104L39.1576 28.554V35C39.1576 36.167 38.7078 37.2861 37.9071 38.1113C37.1064 38.9364 36.0205 39.4 34.8882 39.4H30.6208L30.6187 46H11.406V37.8732C11.406 35.2772 10.4752 32.8198 8.7482 30.6022C6.73664 28.0138 5.47559 24.8924 5.11037 21.5976C4.74514 18.3028 5.2906 14.9687 6.68388 11.9795C8.07717 8.9902 10.2616 6.46745 12.9855 4.70185C15.7093 2.93626 18.8618 1.99967 22.0797 2ZM22.0797 6.4C19.6665 6.3999 17.3024 7.10234 15.2597 8.42641C13.217 9.75049 11.5788 11.6423 10.5339 13.884C9.48889 16.1256 9.07965 18.6259 9.35329 21.0968C9.62693 23.5677 10.5723 25.9086 12.0805 27.85C14.4159 30.8508 15.6754 34.2674 15.6754 37.8732V41.6H26.3492L26.3534 35H34.8882V25.6544L38.197 24.1936L34.9031 18.8586L34.7814 17.8862C34.3773 14.7092 32.8658 11.7921 30.5288 9.67873C28.1918 7.56538 25.1888 6.40005 22.0797 6.4ZM20.9483 14.6786L22.0797 15.8446L23.2111 14.6786C23.9155 13.9771 24.8591 13.5889 25.8387 13.5975C26.8182 13.606 27.7552 14.0107 28.448 14.7244C29.1408 15.4381 29.5339 16.4036 29.5426 17.4131C29.5513 18.4225 29.175 19.3951 28.4946 20.1214L22.0797 26.7346L15.6648 20.1214C15.308 19.7662 15.0235 19.3413 14.8278 18.8715C14.6321 18.4018 14.5292 17.8966 14.525 17.3854C14.5207 16.8742 14.6154 16.3672 14.8033 15.8941C14.9912 15.421 15.2687 14.9912 15.6195 14.6298C15.9704 14.2684 16.3875 13.9826 16.8467 13.7891C17.3059 13.5956 17.7978 13.4983 18.2938 13.5028C18.7899 13.5074 19.2801 13.6137 19.7358 13.8156C20.1916 14.0174 20.6037 14.3108 20.9483 14.6786Z" fill="#CC9C00"/>
</svg>
