<svg width="48" height="48" viewBox="0 0 48 48" fill="none" xmlns="http://www.w3.org/2000/svg">
<g clip-path="url(#clip0_3782_193)">
<path d="M21.327 10.6043C21.1591 10.7036 20.9912 10.799 20.8233 10.8982C20.0219 9.83735 19.2206 8.77653 18.4002 7.68901C17.0456 9.05891 15.9542 10.1617 14.9773 11.15C18.0453 14.2218 21.0675 17.2478 23.9981 20.1822C26.9668 17.244 30.0386 14.1989 33.1104 11.1576C32.0916 10.0968 31.0537 9.01693 29.928 7.84164C28.7794 8.93298 27.73 9.93274 26.5624 11.0432V0C24.6964 0 23.1891 0 21.327 0V10.6043Z" fill="#26C465"/>
<path d="M10.6043 26.6692C10.7036 26.8371 10.799 27.005 10.8982 27.1729C9.83735 27.9742 8.77653 28.7756 7.68901 29.596C9.05891 30.9506 10.1617 32.042 11.15 33.0188C14.2218 29.9509 17.2478 26.9287 20.1822 23.9981C17.244 21.0293 14.1989 17.9575 11.1576 14.8857C10.0968 15.9046 9.01693 16.9425 7.84164 18.0682C8.93298 19.2168 9.93274 20.2661 11.0432 21.4338H0C0 23.2998 0 24.807 0 26.6692H10.6043Z" fill="#26C465"/>
<path d="M26.6692 37.3918C26.8371 37.2926 27.005 37.1972 27.1729 37.098C27.9742 38.1588 28.7756 39.2196 29.596 40.3072C30.9506 38.9373 32.042 37.8345 33.0188 36.8462C29.9509 33.7744 26.9287 30.7484 23.9981 27.814C21.0293 30.7522 17.9575 33.7973 14.8858 36.8385C15.9046 37.8993 16.9425 38.9792 18.0682 40.1545C19.2168 39.0632 20.2662 38.0634 21.4338 36.953V47.9962C23.2998 47.9962 24.8071 47.9962 26.6692 47.9962V37.3918Z" fill="#26C465"/>
<path d="M37.3918 21.3269C37.2926 21.159 37.1972 20.9911 37.098 20.8232C38.1588 20.0219 39.2197 19.2206 40.3072 18.4001C38.9373 17.0455 37.8345 15.9542 36.8462 14.9773C33.7744 18.0453 30.7484 21.0674 27.814 23.998C30.7522 26.9668 33.7973 30.0386 36.8385 33.1104C37.8994 32.0915 38.9793 31.0536 40.1545 29.9279C39.0632 28.7793 38.0634 27.73 36.953 26.5623H47.9962C47.9962 24.6964 47.9962 23.1891 47.9962 21.3269H37.3918Z" fill="#26C465"/>
</g>
<defs>
<clipPath id="clip0_3782_193">
<rect width="48" height="48" fill="white"/>
</clipPath>
</defs>
</svg>
