<svg width="48" height="48" viewBox="0 0 48 48" fill="none" xmlns="http://www.w3.org/2000/svg">
<g clip-path="url(#clip0_3782_198)">
<path d="M21.75 6V3C21.75 2.40326 21.9871 1.83097 22.409 1.40901C22.831 0.987053 23.4033 0.75 24 0.75C24.5967 0.75 25.169 0.987053 25.591 1.40901C26.0129 1.83097 26.25 2.40326 26.25 3V6C26.25 6.59674 26.0129 7.16903 25.591 7.59099C25.169 8.01295 24.5967 8.25 24 8.25C23.4033 8.25 22.831 8.01295 22.409 7.59099C21.9871 7.16903 21.75 6.59674 21.75 6ZM36.75 24C36.75 26.5217 36.0022 28.9868 34.6012 31.0835C33.2002 33.1802 31.209 34.8144 28.8792 35.7795C26.5495 36.7445 23.9859 36.997 21.5126 36.505C19.0393 36.0131 16.7675 34.7987 14.9844 33.0156C13.2013 31.2325 11.9869 28.9607 11.495 26.4874C11.003 24.0141 11.2555 21.4505 12.2205 19.1208C13.1856 16.791 14.8198 14.7998 16.9165 13.3988C19.0132 11.9978 21.4783 11.25 24 11.25C27.3804 11.2535 30.6214 12.5979 33.0118 14.9882C35.4021 17.3786 36.7465 20.6196 36.75 24ZM32.25 24C32.25 22.3683 31.7661 20.7733 30.8596 19.4165C29.9531 18.0598 28.6646 17.0024 27.1571 16.378C25.6496 15.7536 23.9908 15.5902 22.3905 15.9085C20.7902 16.2269 19.3202 17.0126 18.1664 18.1664C17.0126 19.3202 16.2269 20.7902 15.9085 22.3905C15.5902 23.9908 15.7536 25.6496 16.378 27.1571C17.0024 28.6646 18.0598 29.9531 19.4165 30.8596C20.7733 31.7661 22.3683 32.25 24 32.25C26.1873 32.2475 28.2843 31.3775 29.8309 29.8309C31.3775 28.2843 32.2475 26.1873 32.25 24ZM9.65812 12.8419C9.86742 13.0512 10.1159 13.2172 10.3893 13.3305C10.6628 13.4437 10.9559 13.502 11.2519 13.502C11.5479 13.502 11.841 13.4437 12.1144 13.3305C12.3879 13.2172 12.6363 13.0512 12.8456 12.8419C13.0549 12.6326 13.2209 12.3841 13.3342 12.1107C13.4475 11.8372 13.5058 11.5441 13.5058 11.2481C13.5058 10.9521 13.4475 10.659 13.3342 10.3856C13.2209 10.1121 13.0549 9.86367 12.8456 9.65438L10.5956 7.40438C10.1729 6.98169 9.59965 6.74422 9.00187 6.74422C8.4041 6.74422 7.83081 6.98169 7.40812 7.40438C6.98544 7.82706 6.74797 8.40035 6.74797 8.99813C6.74797 9.5959 6.98544 10.1692 7.40812 10.5919L9.65812 12.8419ZM9.65812 35.1544L7.40812 37.4044C7.19883 37.6137 7.03281 37.8621 6.91954 38.1356C6.80627 38.409 6.74797 38.7021 6.74797 38.9981C6.74797 39.2941 6.80627 39.5872 6.91954 39.8607C7.03281 40.1341 7.19883 40.3826 7.40812 40.5919C7.83081 41.0146 8.4041 41.252 9.00187 41.252C9.29786 41.252 9.59095 41.1937 9.86441 41.0805C10.1379 40.9672 10.3863 40.8012 10.5956 40.5919L12.8456 38.3419C13.2683 37.9192 13.5058 37.3459 13.5058 36.7481C13.5058 36.1504 13.2683 35.5771 12.8456 35.1544C12.4229 34.7317 11.8496 34.4942 11.2519 34.4942C10.6541 34.4942 10.0808 34.7317 9.65812 35.1544ZM36.75 13.5C37.0456 13.5002 37.3383 13.4422 37.6114 13.3293C37.8846 13.2164 38.1328 13.0508 38.3419 12.8419L40.5919 10.5919C40.8012 10.3826 40.9672 10.1341 41.0805 9.86066C41.1937 9.5872 41.252 9.29411 41.252 8.99813C41.252 8.70214 41.1937 8.40905 41.0805 8.13559C40.9672 7.86214 40.8012 7.61367 40.5919 7.40438C40.3826 7.19508 40.1341 7.02906 39.8607 6.91579C39.5872 6.80252 39.2941 6.74422 38.9981 6.74422C38.7021 6.74422 38.409 6.80252 38.1356 6.91579C37.8621 7.02906 37.6137 7.19508 37.4044 7.40438L35.1544 9.65438C34.8378 9.96907 34.622 10.3708 34.5344 10.8085C34.4469 11.2462 34.4914 11.7 34.6625 12.1123C34.8336 12.5246 35.1234 12.8767 35.4951 13.1238C35.8668 13.3709 36.3036 13.5018 36.75 13.5ZM38.3419 35.1581C37.9192 34.7354 37.3459 34.498 36.7481 34.498C36.1504 34.498 35.5771 34.7354 35.1544 35.1581C34.7317 35.5808 34.4942 36.1541 34.4942 36.7519C34.4942 37.3496 34.7317 37.9229 35.1544 38.3456L37.4044 40.5956C37.8271 41.0183 38.4004 41.2558 38.9981 41.2558C39.5959 41.2558 40.1692 41.0183 40.5919 40.5956C41.0146 40.1729 41.252 39.5996 41.252 39.0019C41.252 38.4041 41.0146 37.8308 40.5919 37.4081L38.3419 35.1581ZM8.25 24C8.25 23.4033 8.01295 22.831 7.59099 22.409C7.16903 21.9871 6.59674 21.75 6 21.75H3C2.40326 21.75 1.83097 21.9871 1.40901 22.409C0.987053 22.831 0.75 23.4033 0.75 24C0.75 24.5967 0.987053 25.169 1.40901 25.591C1.83097 26.0129 2.40326 26.25 3 26.25H6C6.59674 26.25 7.16903 26.0129 7.59099 25.591C8.01295 25.169 8.25 24.5967 8.25 24ZM24 39.75C23.4033 39.75 22.831 39.9871 22.409 40.409C21.9871 40.831 21.75 41.4033 21.75 42V45C21.75 45.5967 21.9871 46.169 22.409 46.591C22.831 47.0129 23.4033 47.25 24 47.25C24.5967 47.25 25.169 47.0129 25.591 46.591C26.0129 46.169 26.25 45.5967 26.25 45V42C26.25 41.4033 26.0129 40.831 25.591 40.409C25.169 39.9871 24.5967 39.75 24 39.75ZM45 21.75H42C41.4033 21.75 40.831 21.9871 40.409 22.409C39.9871 22.831 39.75 23.4033 39.75 24C39.75 24.5967 39.9871 25.169 40.409 25.591C40.831 26.0129 41.4033 26.25 42 26.25H45C45.5967 26.25 46.169 26.0129 46.591 25.591C47.0129 25.169 47.25 24.5967 47.25 24C47.25 23.4033 47.0129 22.831 46.591 22.409C46.169 21.9871 45.5967 21.75 45 21.75Z" fill="#054CC0"/>
</g>
<defs>
<clipPath id="clip0_3782_198">
<rect width="48" height="48" fill="white"/>
</clipPath>
</defs>
</svg>
