<svg width="48" height="48" viewBox="0 0 48 48" fill="none" xmlns="http://www.w3.org/2000/svg">
<path d="M24 27C18.343 27 14.065 22.657 14.065 17L14 7L19 11L24 5L29 11L34 7V17C34 22.657 29.658 27 24 27ZM23.486 43.314C25.048 41.752 23.149 37.319 19.244 33.414C15.338 29.509 10.906 27.609 9.34399 29.172C7.78199 30.734 9.68099 35.166 13.587 39.072C17.492 42.976 21.923 44.876 23.486 43.314Z" stroke="#054CC0" stroke-width="4" stroke-miterlimit="10" stroke-linecap="round" stroke-linejoin="round"/>
<path d="M24.829 42.9701C26.391 44.5331 30.823 42.6331 34.729 38.7281C38.634 34.8231 40.533 30.3901 38.971 28.8281C37.409 27.2661 32.977 29.1661 29.071 33.0711C25.166 36.9761 23.267 41.4071 24.829 42.9701Z" stroke="#054CC0" stroke-width="4" stroke-miterlimit="10" stroke-linecap="round" stroke-linejoin="round"/>
</svg>
